<svg xmlns:xlink="http://www.w3.org/1999/xlink" xmlns="http://www.w3.org/2000/svg" width="176" height="32" viewBox="0 0 176 32" fill="none">
<path fill-rule="evenodd" clip-rule="evenodd" d="M168 31.5706C168 31.5706 170.482 30.2174 170.8 27.2125C171.118 24.2076 173.233 23.1364 176 23.7261C176.014 31.5557 168 31.5706 168 31.5706Z" fill="#79D97C"/>
<path d="M12 16C12 24.8366 24.8366 32 16 32C7.16344 32 0 24.8366 0 16C0 7.16344 7.16344 0 16 0C24.8366 0 12 7.16344 12 16Z" fill="#79D97C"/>
<path d="M16.8103 26.626C14.7343 23.8002 12 20.0782 12 15.9999C12 12.8786 13.6016 9.96599 15.2839 7.50415L15.2656 7.51942C9.0834 14.3122 5.63164 20.8685 4.46045 27.0832C7.37189 30.1137 11.4657 31.9999 16 31.9999C20.7582 31.9999 19.2323 29.9229 16.8103 26.626Z" fill="#5CAA7F"/>
<path d="M13.8768 22.2444C14.7764 23.8576 15.862 25.3354 16.8103 26.6261C19.2227 29.9099 20.7461 31.9835 16.0563 31.9999C13.7584 31.645 13.2932 26.0316 13.8768 22.2444Z" fill="#F0B323"/>
<path d="M26 31.576H45.9768V26.5239H31.5138V5.51377C31.5138 2.4686 29.0452 0 26 0V31.576Z" fill="#161616"/>
<path d="M47.3602 21.1349C47.3602 27.3659 51.5168 31.997 58.4302 31.997C63.435 31.997 67.6763 29.471 68.6094 25.2608L63.9015 24.4188C63.3501 26.3134 61.2719 27.5764 58.4302 27.5764C56.6488 27.5764 55.2067 27.0291 54.104 25.9765C53.2133 25.1345 52.7043 23.9136 52.5347 22.3558H68.5246C68.6518 21.6401 68.7367 20.7981 68.7367 20.0824C68.7367 14.1461 64.4529 10.1043 58.3453 10.1043C51.8985 10.1043 47.3602 14.7776 47.3602 21.1349ZM58.3878 14.3145C61.3143 14.3145 63.1381 15.7038 63.7319 18.3562H52.7043C53.2981 15.7038 55.2491 14.3145 58.3878 14.3145Z" fill="#161616"/>
<path d="M72.7143 31.576H77.3798L77.6342 28.9657C78.1856 29.5973 78.7794 30.1025 79.458 30.5656C80.9001 31.5339 82.5542 31.997 84.4204 31.997C90.2735 31.997 94.8118 27.3238 94.8118 21.0507C94.8118 14.7776 90.2735 10.1043 84.4204 10.1043C82.5542 10.1043 80.9001 10.5674 79.458 11.5358C78.8642 11.9147 78.3129 12.3778 77.8039 12.9251V0L72.7143 0C72.7143 0.976236 72.7143 0.895431 72.7143 2V31.576ZM83.657 14.7355C87.1773 14.7355 89.5101 17.3037 89.5101 21.0507C89.5101 24.7977 87.1773 27.3659 83.657 27.3659C80.1366 27.3659 77.8039 24.7977 77.8039 21.0507C77.8039 17.3037 80.1366 14.7355 83.657 14.7355Z" fill="#161616"/>
<path d="M111.504 31.576H116V18.2299C116 13.2198 112.564 10.1043 107.008 10.1043C104.167 10.1043 101.919 10.7358 100.222 11.9989C98.5256 13.2619 97.5077 14.8618 97.2108 16.7984L101.876 17.6826C102.385 15.4933 103.955 14.3566 106.627 14.3566C107.984 14.3566 109.087 14.6934 109.892 15.367C110.444 15.8722 110.826 16.63 110.995 17.6405L105.312 18.7772C100.731 19.7034 97.2532 21.4717 97.2532 25.766C97.2532 27.7448 97.9318 29.3026 99.2466 30.3551C100.561 31.4497 102.216 31.997 104.124 31.997C105.906 31.997 107.475 31.576 108.875 30.6919C109.765 30.1446 110.529 29.4289 111.165 28.5447L111.504 31.576ZM111.08 21.4296V21.9348C111.08 25.8923 107.984 27.7869 105.015 27.7869C103.446 27.7869 102.385 26.987 102.385 25.4713C102.385 23.8294 103.573 23.1558 105.481 22.6926L111.08 21.4296Z" fill="#161616"/>
<path d="M118.711 14.8657H128.271L118.5 30.1782V31.5741H135.843V27.1326H125.776L135.843 11.8201V10.4242H118.711V14.8657Z" fill="#161616"/>
<path d="M152.891 31.5741H157.375V18.1651C157.375 13.1314 153.948 10.0012 148.407 10.0012C145.573 10.0012 143.331 10.6357 141.639 11.9047C139.947 13.1737 138.932 14.7811 138.636 16.7269L143.289 17.6152C143.797 15.4156 145.362 14.2735 148.027 14.2735C149.38 14.2735 150.48 14.6119 151.284 15.2887C151.834 15.7963 152.214 16.5577 152.383 17.5729L146.715 18.715C142.147 19.6456 138.678 21.4222 138.678 25.7367C138.678 27.7248 139.355 29.2899 140.666 30.3474C141.978 31.4472 143.627 31.9971 145.531 31.9971C147.307 31.9971 148.873 31.5741 150.268 30.6858C151.157 30.1359 151.918 29.4168 152.553 28.5285L152.891 31.5741ZM152.468 21.3799V21.8874C152.468 25.8636 149.38 27.7671 146.419 27.7671C144.854 27.7671 143.797 26.9634 143.797 25.4406C143.797 23.7909 144.981 23.1141 146.884 22.6488L152.468 21.3799Z" fill="#161616"/>
<path d="M161.19 31.5741H166.266V20.5339C166.266 16.9807 168.551 15.0349 171.385 15.0349C172.062 15.0349 172.781 15.1195 173.627 15.331L174.176 10.3819C173.373 10.1704 172.823 10.0858 172.104 10.0858C169.439 10.0858 167.493 11.2279 166.266 13.0468L165.97 10.4242H161.19V31.5741Z" fill="#161616"/>
</svg>