<svg width="196" height="196" viewBox="0 0 196 196" fill="none" xmlns="http://www.w3.org/2000/svg">
<path d="M3.3 51C6.6 46.5 11.9 43.6 17.8 43.6L175 43.7C184.8 43.7 192.5 51.3 192.5 61V96.2C192.1 96.2 191.8 96.1 191.4 96.1H181.9C176.3 96.1 172 100.1 172 104.4V134.5C172 138.9 176.3 142.8 181.9 142.8H191.4C191.8 142.8 192.1 142.8 192.5 142.7V177.9C192.5 187.2 185.4 194.8 175.6 194.8C92.8 194.8 83.7 195.1 17.7 195.1C7.9 195.1 0 186.6 0 177.2V61.3C0 57.5 1.2 53.9 3.3 51ZM78.9 74.4C51.9 74.4 37.9 96.6 37.9 118.3C37.9 140 51.5 161.9 78.9 161.9C106.3 161.9 119.5 140.1 119.5 118.3C119.5 96.5 106.3 74.4 78.9 74.4ZM78.7 89C61.3 89 52.5 103.6 52.5 118.2C52.5 132.8 61.4 147.4 78.7 147.4C96 147.4 104.9 132.8 104.9 118.2C104.9 103.6 96.2 89 78.7 89ZM132.7 144.4V159H147.3V144.4H132.7ZM148.7 77.3H131.2L134.1 138.4H145.8L148.7 77.3ZM183.8 102.1H189.5C192.9 102.1 195.4 105 195.4 108.3V130.8C195.4 134.1 192.8 137 189.5 137H183.8C180.4 137 177.9 134.1 177.9 130.8V108.3C177.9 105.1 180.5 102.1 183.8 102.1ZM149.4 0.500009L38.6 33.1C37.9 33.1 37.9 33.5 37.9 33.8C37.9 34.5 38.3 35 38.6 35H164.8V13.5C164.8 9.30001 163.1 5.60001 160.1 2.90001C157 0.100009 153.2 -0.599991 149.4 0.500009Z" fill="#F0047F"/>
</svg>
