<svg width="45" height="15" viewBox="0 0 45 15" fill="none" xmlns="http://www.w3.org/2000/svg">
<path d="M30.8984 2.46017C30.2806 2.2365 29.3137 2 28.1145 2C25.0448 2 22.8767 3.47767 22.8614 5.59883C22.8422 7.15717 24.402 8.03533 25.582 8.556C26.7926 9.09133 27.1974 9.42867 27.1936 9.90717C27.1859 10.635 26.2266 10.965 25.3345 10.965C24.1085 10.965 23.4389 10.8018 22.4086 10.393L22.0268 10.2225L21.5913 12.6645C22.3376 12.9615 23.6826 13.2163 25.0716 13.2383C28.3352 13.2383 30.4687 11.7698 30.4936 9.513C30.5205 8.26817 29.6763 7.32767 27.8997 6.55033C26.8195 6.04617 26.1499 5.70883 26.1499 5.19733C26.1499 4.7445 26.7235 4.2605 27.9227 4.2605C28.9568 4.24583 29.6763 4.4585 30.2499 4.68033L30.5377 4.80317L30.9733 2.44367L30.8984 2.46017ZM38.8645 2.198H36.4662C35.7199 2.198 35.1577 2.39417 34.8316 3.10183L30.2192 13.0862H33.4828L34.1351 11.449L38.1181 11.4527C38.2122 11.8358 38.4999 13.0862 38.4999 13.0862H41.3778L38.8645 2.198ZM18.4467 2.10633H21.5567L19.6113 13H16.5051L18.4467 2.10267V2.10633V2.10633ZM10.5516 8.1105L10.874 9.623L13.913 2.198H17.2073L12.3129 13.0715H9.02634L6.34029 3.8645C6.28273 3.705 6.21558 3.59867 6.05442 3.49967C5.14308 3.04683 4.12814 2.67833 3 2.41983L3.04221 2.19067H8.04785C8.72703 2.21633 9.27384 2.41983 9.4561 3.11283L10.5497 8.116V8.1105H10.5516ZM35.0273 9.2215L36.2667 6.1745C36.2513 6.2075 36.5219 5.54567 36.6792 5.13683L36.8922 6.07733L37.6116 9.21967H35.0254V9.2215H35.0273Z" fill="#3F5B9B"/>
</svg>
